<?xml version="1.0" encoding="UTF-8" standalone="no"?>
<!DOCTYPE svg PUBLIC "-//W3C//DTD SVG 1.0//EN" "http://www.w3.org/TR/2001/REC-SVG-20010904/DTD/svg10.dtd">
<!-- Generated by Microsoft Visio 11.0, SVG Export, v1.0 tech-stack.svg Page-1 -->
<svg xmlns="http://www.w3.org/2000/svg" xmlns:xlink="http://www.w3.org/1999/xlink" xmlns:ev="http://www.w3.org/2001/xml-events"
		xmlns:v="http://schemas.microsoft.com/visio/2003/SVGExtensions/" width="7.62083in" height="5.80833in"
		viewBox="0 0 548.7 418.2" xml:space="preserve" color-interpolation-filters="sRGB" class="st11">
	<v:documentProperties v:langID="1033" v:viewMarkup="false">
		<v:userDefs>
			<v:ud v:nameU="msvSubprocessMaster" v:prompt="" v:val="VT4(Rectangle)"/>
			<v:ud v:nameU="msvNoAutoConnect" v:val="VT0(1):26"/>
		</v:userDefs>
	</v:documentProperties>

	<style type="text/css">
	<![CDATA[
		.st1 {visibility:visible}
		.st2 {fill:#696464;fill-opacity:0.4;stroke:#696464;stroke-linecap:round;stroke-linejoin:round;stroke-opacity:0.4;stroke-width:1.2}
		.st3 {fill:url(#grad36-6);stroke:#696464;stroke-linecap:round;stroke-linejoin:round;stroke-width:1.2}
		.st4 {fill:#000000;font-family:Arial;font-size:1.00001em;font-weight:bold}
		.st5 {font-size:1em;font-weight:normal}
		.st6 {fill:url(#grad36-50);stroke:#696464;stroke-linecap:round;stroke-linejoin:round;stroke-width:1.2}
		.st7 {fill:#000000;font-family:Arial;font-size:1.16666em;font-weight:bold}
		.st8 {font-size:1em}
		.st9 {marker-end:url(#mrkr13-59);stroke:#696464;stroke-linecap:butt;stroke-width:6}
		.st10 {fill:#696464;fill-opacity:1;stroke:#696464;stroke-opacity:1;stroke-width:0.70422535211268}
		.st11 {fill:none;fill-rule:evenodd;font-size:12px;overflow:visible;stroke-linecap:square;stroke-miterlimit:3}
	]]>
	</style>

	<defs id="Patterns_And_Gradients">
		<radialGradient id="grad36-6" v:fillPattern="36" v:foreground="#f19272" v:background="#ed744b" cx="0" cy="0" r="1">
			<stop offset="0" style="stop-color:#f19272;stop-opacity:1"/>
			<stop offset="1" style="stop-color:#ed744b;stop-opacity:1"/>
		</radialGradient>
		<radialGradient id="grad36-50" v:fillPattern="36" v:foreground="#a8d973" v:background="#92d050" cx="0" cy="0" r="1">
			<stop offset="0" style="stop-color:#a8d973;stop-opacity:1"/>
			<stop offset="1" style="stop-color:#92d050;stop-opacity:1"/>
		</radialGradient>
	</defs>
	<defs id="Markers">
		<g id="lend13">
			<path d="M 3 1 L 0 0 L 3 -1 L 3 1 " style="stroke:none"/>
		</g>
		<marker id="mrkr13-59" class="st10" v:arrowType="13" v:arrowSize="2" v:setback="4.26" refX="-4.26" orient="auto"
				markerUnits="strokeWidth" overflow="visible">
			<use xlink:href="#lend13" transform="scale(-1.42,-1.42) "/>
		</marker>
	</defs>
	<g v:mID="0" v:index="1" v:groupContext="foregroundPage">
		<v:userDefs>
			<v:ud v:nameU="msvThemeColors" v:val="VT0(14):26"/>
			<v:ud v:nameU="msvThemeEffects" v:val="VT0(3):26"/>
			<v:ud v:nameU="msvThemeOrder" v:val="VT0(0):26"/>
		</v:userDefs>
		<title>Page-1</title>
		<v:pageProperties v:drawingScale="1" v:pageScale="1" v:drawingUnits="0" v:shadowOffsetX="9" v:shadowOffsetY="-9"
				v:shadowType="1"/>
		<v:layer v:name="Connector" v:index="0"/>
		<g id="shape1-1" v:mID="1" v:groupContext="shape" transform="translate(19.2,-219)">
			<title>Rectangle</title>
			<desc>HSQLDB We use HSQLDB for reliable data persistence</desc>
			<v:userDefs>
				<v:ud v:nameU="visVersion" v:val="VT0(14):26"/>
				<v:ud v:nameU="msvThemeColors" v:val="VT0(14):26"/>
				<v:ud v:nameU="msvThemeEffects" v:val="VT0(3):26"/>
			</v:userDefs>
			<v:textBlock v:margins="rect(4,4,4,4)"/>
			<v:textRect cx="54" cy="382.2" width="108" height="72"/>
			<g id="shadow1-2" v:groupContext="shadow" v:shadowOffsetX="1.8" v:shadowOffsetY="-1.8" v:shadowType="1"
					transform="matrix(1,0,0,1,1.8,1.8)" class="st1">
				<rect x="0" y="346.2" width="108" height="72" rx="4.5" ry="4.5" class="st2"/>
			</g>
			<rect x="0" y="346.2" width="108" height="72" rx="4.5" ry="4.5" class="st3"/>
			<text x="28.67" y="364.2" class="st4" v:langID="1033"><v:paragraph v:horizAlign="1"/><v:tabList/>HSQLDB<v:newlineChar/><tspan
						x="7.32" dy="1.2em" class="st5">We use HSQLDB </tspan><tspan x="12.64" dy="1.2em" class="st5">for reliable data </tspan><tspan
						x="23.32" dy="1.2em" class="st5">persistence</tspan></text>		</g>
		<g id="shape2-11" v:mID="2" v:groupContext="shape" transform="translate(239.7,-327)">
			<title>Rectangle.2</title>
			<desc>Java We use Java to write our code</desc>
			<v:userDefs>
				<v:ud v:nameU="visVersion" v:val="VT0(14):26"/>
				<v:ud v:nameU="msvThemeColors" v:val="VT0(14):26"/>
				<v:ud v:nameU="msvThemeEffects" v:val="VT0(3):26"/>
			</v:userDefs>
			<v:textBlock v:margins="rect(4,4,4,4)"/>
			<v:textRect cx="54" cy="382.2" width="108" height="72"/>
			<g id="shadow2-12" v:groupContext="shadow" v:shadowOffsetX="1.8" v:shadowOffsetY="-1.8" v:shadowType="1"
					transform="matrix(1,0,0,1,1.8,1.8)" class="st1">
				<rect x="0" y="346.2" width="108" height="72" rx="4.5" ry="4.5" class="st2"/>
			</g>
			<rect x="0" y="346.2" width="108" height="72" rx="4.5" ry="4.5" class="st3"/>
			<text x="40.65" y="371.4" class="st4" v:langID="1033"><v:paragraph v:horizAlign="1"/><v:tabList/>Java<v:newlineChar/><tspan
						x="12.65" dy="1.2em" class="st5">We use Java to </tspan><tspan x="16.31" dy="1.2em" class="st5">write our code</tspan></text>		</g>
		<g id="shape3-19" v:mID="3" v:groupContext="shape" transform="translate(419.7,-228)">
			<title>Rectangle.3</title>
			<desc>Spring Boot We use Spring to avoid reinventing the wheels</desc>
			<v:userDefs>
				<v:ud v:nameU="visVersion" v:val="VT0(14):26"/>
				<v:ud v:nameU="msvThemeColors" v:val="VT0(14):26"/>
				<v:ud v:nameU="msvThemeEffects" v:val="VT0(3):26"/>
			</v:userDefs>
			<v:textBlock v:margins="rect(4,4,4,4)"/>
			<v:textRect cx="54" cy="382.2" width="108" height="72"/>
			<g id="shadow3-20" v:groupContext="shadow" v:shadowOffsetX="1.8" v:shadowOffsetY="-1.8" v:shadowType="1"
					transform="matrix(1,0,0,1,1.8,1.8)" class="st1">
				<rect x="0" y="346.2" width="108" height="72" rx="4.5" ry="4.5" class="st2"/>
			</g>
			<rect x="0" y="346.2" width="108" height="72" rx="4.5" ry="4.5" class="st3"/>
			<text x="19.67" y="364.2" class="st4" v:langID="1033"><v:paragraph v:horizAlign="1"/><v:tabList/>Spring Boot<v:newlineChar/><tspan
						x="7.98" dy="1.2em" class="st5">We use Spring to </tspan><tspan x="8.64" dy="1.2em" class="st5">avoid reinventing </tspan><tspan
						x="25.31" dy="1.2em" class="st5">the wheels</tspan></text>		</g>
		<g id="shape4-28" v:mID="4" v:groupContext="shape" transform="translate(41.7,-21)">
			<title>Rectangle.4</title>
			<desc>Tomcat We use Tomcat to run our application</desc>
			<v:userDefs>
				<v:ud v:nameU="visVersion" v:val="VT0(14):26"/>
				<v:ud v:nameU="msvThemeColors" v:val="VT0(14):26"/>
				<v:ud v:nameU="msvThemeEffects" v:val="VT0(3):26"/>
			</v:userDefs>
			<v:textBlock v:margins="rect(4,4,4,4)"/>
			<v:textRect cx="54" cy="382.2" width="108" height="72"/>
			<g id="shadow4-29" v:groupContext="shadow" v:shadowOffsetX="1.8" v:shadowOffsetY="-1.8" v:shadowType="1"
					transform="matrix(1,0,0,1,1.8,1.8)" class="st1">
				<rect x="0" y="346.2" width="108" height="72" rx="4.5" ry="4.5" class="st2"/>
			</g>
			<rect x="0" y="346.2" width="108" height="72" rx="4.5" ry="4.5" class="st3"/>
			<text x="32.66" y="371.4" class="st4" v:langID="1033"><v:paragraph v:horizAlign="1"/><v:tabList/>Tomcat<v:newlineChar/><tspan
						x="5.32" dy="1.2em" class="st5">We use Tomcat to </tspan><tspan x="4.63" dy="1.2em" class="st5">run our application</tspan></text>		</g>
		<g id="shape5-36" v:mID="5" v:groupContext="shape" transform="translate(401.7,-21)">
			<title>Rectangle.5</title>
			<desc>REST We use REST to make our service easy to use</desc>
			<v:userDefs>
				<v:ud v:nameU="visVersion" v:val="VT0(14):26"/>
				<v:ud v:nameU="msvThemeColors" v:val="VT0(14):26"/>
				<v:ud v:nameU="msvThemeEffects" v:val="VT0(3):26"/>
			</v:userDefs>
			<v:textBlock v:margins="rect(4,4,4,4)"/>
			<v:textRect cx="54" cy="382.2" width="108" height="72"/>
			<g id="shadow5-37" v:groupContext="shadow" v:shadowOffsetX="1.8" v:shadowOffsetY="-1.8" v:shadowType="1"
					transform="matrix(1,0,0,1,1.8,1.8)" class="st1">
				<rect x="0" y="346.2" width="108" height="72" rx="4.5" ry="4.5" class="st2"/>
			</g>
			<rect x="0" y="346.2" width="108" height="72" rx="4.5" ry="4.5" class="st3"/>
			<text x="38" y="364.2" class="st4" v:langID="1033"><v:paragraph v:horizAlign="1"/><v:tabList/>REST<v:newlineChar/><tspan
						x="9.32" dy="1.2em" class="st5">We use REST to </tspan><tspan x="8.32" dy="1.2em" class="st5">make our service </tspan><tspan
						x="23.31" dy="1.2em" class="st5">easy to use</tspan></text>		</g>
		<g id="shape6-45" v:mID="6" v:groupContext="shape" transform="translate(208.2,-111)">
			<title>Star 5</title>
			<desc>Notepad Service</desc>
			<v:userDefs>
				<v:ud v:nameU="visVersion" v:val="VT0(14):26"/>
				<v:ud v:nameU="msvThemeColors" v:val="VT0(14):26"/>
				<v:ud v:nameU="msvThemeEffects" v:val="VT0(3):26"/>
			</v:userDefs>
			<v:textBlock v:margins="rect(4,4,4,4)"/>
			<v:textRect cx="69.75" cy="360.075" width="69.75" height="58.125"/>
			<g id="shadow6-46" v:groupContext="shadow" v:shadowOffsetX="1.8" v:shadowOffsetY="-1.8" v:shadowType="1"
					transform="matrix(1,0,0,1,1.8,1.8)" class="st1">
				<path d="M85.24 328.81 L73.94 292.26 A4.5 4.5 -180 0 0 65.36 292.2 L53.45 328.87 A4.5 4.5 0 0 1 49.17 331.98 L10.26
							 331.98 A4.5 4.5 -180 0 0 7.62 340.12 L39.09 362.99 A4.5 4.5 0 0 1 40.73 368.03 L28.7 405.03 A4.5 4.5
							 -180 0 0 35.63 410.06 L67.1 387.19 A4.5 4.5 0 0 1 72.4 387.19 L103.87 410.06 A4.5 4.5 -180 0 0 110.8
							 405.03 L98.77 368.03 A4.5 4.5 0 0 1 100.41 362.99 L131.88 340.12 A4.5 4.5 -180 0 0 129.24 331.98 L89.54
							 331.98 A4.5 4.5 0 0 1 85.24 328.81 Z" class="st2"/>
			</g>
			<path d="M85.24 328.81 L73.94 292.26 A4.5 4.5 -180 0 0 65.36 292.2 L53.45 328.87 A4.5 4.5 0 0 1 49.17 331.98 L10.26 331.98
						 A4.5 4.5 -180 0 0 7.62 340.12 L39.09 362.99 A4.5 4.5 0 0 1 40.73 368.03 L28.7 405.03 A4.5 4.5 -180 0 0 35.63
						 410.06 L67.1 387.19 A4.5 4.5 0 0 1 72.4 387.19 L103.87 410.06 A4.5 4.5 -180 0 0 110.8 405.03 L98.77 368.03
						 A4.5 4.5 0 0 1 100.41 362.99 L131.88 340.12 A4.5 4.5 -180 0 0 129.24 331.98 L89.54 331.98 A4.5 4.5 0 0 1
						 85.24 328.81 Z" class="st6"/>
			<text x="41.75" y="355.88" class="st7" v:langID="1033"><v:paragraph v:horizAlign="1"/><v:tabList/>Notepad <tspan
						x="44.84" dy="1.2em" class="st8">Service</tspan></text>		</g>
		<g id="shape7-53" v:mID="7" v:groupContext="shape" v:layerMember="0" transform="translate(401.7,-57)">
			<title>Dynamic connector</title>
			<v:userDefs>
				<v:ud v:nameU="visVersion" v:val="VT0(14):26"/>
				<v:ud v:nameU="msvThemeColors" v:val="VT0(14):26"/>
				<v:ud v:nameU="msvThemeEffects" v:val="VT0(3):26"/>
			</v:userDefs>
			<path d="M0 418.2 L-55.92 418.2 A22.5 22.5 0 0 1 -78.42 395.7 L-78.42 389.76" class="st9"/>
		</g>
		<g id="shape8-60" v:mID="8" v:groupContext="shape" v:layerMember="0" transform="translate(419.7,-264)">
			<title>Dynamic connector.8</title>
			<v:userDefs>
				<v:ud v:nameU="visVersion" v:val="VT0(14):26"/>
				<v:ud v:nameU="msvThemeColors" v:val="VT0(14):26"/>
				<v:ud v:nameU="msvThemeEffects" v:val="VT0(3):26"/>
			</v:userDefs>
			<path d="M0 418.2 L-6.75 418.2 A6.75 6.75 -180 0 0 -13.5 424.95 L-13.5 462.48 A22.5 22.5 0 0 1 -36 484.98 L-42.85 484.98"
					class="st9"/>
		</g>
		<g id="shape9-66" v:mID="9" v:groupContext="shape" v:layerMember="0" transform="translate(294.825,-327)">
			<title>Dynamic connector.9</title>
			<v:userDefs>
				<v:ud v:nameU="visVersion" v:val="VT0(14):26"/>
				<v:ud v:nameU="msvThemeColors" v:val="VT0(14):26"/>
				<v:ud v:nameU="msvThemeEffects" v:val="VT0(3):26"/>
			</v:userDefs>
			<path d="M-1.12 418.2 L-1.12 424.95 A6.75 6.75 0 0 1 -7.87 431.7 L-7.87 431.7 A9 9 -180 0 0 -16.88 440.7 L-16.88 469.14"
					class="st9"/>
		</g>
		<g id="shape10-72" v:mID="10" v:groupContext="shape" v:layerMember="0" transform="translate(127.2,-255)">
			<title>Dynamic connector.10</title>
			<v:userDefs>
				<v:ud v:nameU="visVersion" v:val="VT0(14):26"/>
				<v:ud v:nameU="msvThemeColors" v:val="VT0(14):26"/>
				<v:ud v:nameU="msvThemeEffects" v:val="VT0(3):26"/>
			</v:userDefs>
			<path d="M0 418.2 L6.75 418.2 A6.75 6.75 0 0 1 13.5 424.95 L13.5 453.48 A22.5 22.5 -180 0 0 36 475.98 L51.85 475.98"
					class="st9"/>
		</g>
		<g id="shape11-78" v:mID="11" v:groupContext="shape" v:layerMember="0" transform="translate(149.7,-57)">
			<title>Dynamic connector.11</title>
			<v:userDefs>
				<v:ud v:nameU="visVersion" v:val="VT0(14):26"/>
				<v:ud v:nameU="msvThemeColors" v:val="VT0(14):26"/>
				<v:ud v:nameU="msvThemeEffects" v:val="VT0(3):26"/>
			</v:userDefs>
			<path d="M0 418.2 L60.42 418.2 A22.5 22.5 -180 0 0 82.92 395.7 L82.92 389.76" class="st9"/>
		</g>
	</g>
</svg>
